<?xml version="1.0" encoding="UTF-8"?>
<svg xmlns="http://www.w3.org/2000/svg" viewBox="0 0 834.47 91.53">
  <defs>
    <style>
      .cls-1 {
        font-family: Aqum, Aqum;
        font-size: 75.07px;
      }

      .cls-1, .cls-2 {
        fill: #2f2f2f;
      }
    </style>
  </defs>
  <g id="ARO">
    <path class="cls-2" d="M64.49,10.87c.33-.77.64-1.48.99-2.3.35.83.65,1.54.98,2.3h-1.97Z"/>
    <path class="cls-2" d="M41.25,76.99c-10.17-.14-19.01-3.62-26.43-10.61-1.17-1.1-2.22-2.35-3.3-3.54-.21-.23-.36-.32-.7-.22-6.04,1.95-11.78-3.01-10.69-9.28.38-2.18,1.55-3.93,3.37-5.2.33-.23.44-.42.35-.84-1.57-6.68-1.38-13.32.59-19.88,1.73-5.77,4.68-10.85,8.81-15.26,3.13-3.34,6.75-6.05,10.84-8.1C28.76,1.72,33.71.39,38.93.07c5.91-.36,11.61.58,17.08,2.85,1.17.48,2.3,1.07,3.43,1.64.35.17.57.21.92-.06,2.87-2.26,6.81-2.39,9.73-.37,2.98,2.07,4.26,5.75,3.18,9.25-.19.62-.5,1.23-.82,1.8-.18.32-.15.5.05.78,2.67,3.7,4.67,7.73,5.87,12.13,2.45,8.99,1.9,17.8-2.01,26.26-5.07,10.95-13.53,18.05-25.14,21.34-3.24.92-6.57,1.32-9.96,1.3ZM41.17,4.2c-6.01.02-11.84,1.52-17.16,4.72-8.98,5.41-14.5,13.29-16.46,23.62-.87,4.59-.69,9.17.36,13.72.07.29.18.38.48.4.59.04,1.18.09,1.75.23,5.66,1.42,8.08,7.94,4.73,12.72-.2.28-.22.46.02.71.97,1.01,1.88,2.1,2.9,3.06,6.87,6.41,15.01,9.57,24.41,9.38,6.99-.14,13.41-2.24,19.02-6.4,9.68-7.18,14.54-16.86,14.32-28.96-.13-6.87-2.34-13.08-6.27-18.7-.19-.27-.34-.31-.68-.22-1,.27-2.02.61-3.04.63-5.45.11-9.39-4.95-8.05-10.26.1-.38.03-.55-.31-.73-4.97-2.58-10.25-3.88-16.03-3.91ZM4.04,54.7c0,2.23,1.81,4,4.07,4,2.14,0,3.98-1.87,3.96-4.01-.02-2.22-1.82-4-4.03-3.99-2.22,0-4.01,1.8-4,4.01ZM68.73,13.29c-.04-.19-.05-.28-.08-.35-.85-2.03-1.7-4.07-2.57-6.09-.08-.18-.38-.37-.57-.35-.21.02-.51.21-.59.4-.87,2.02-1.71,4.06-2.55,6.09-.12.3-.09.61.26.74.33.12.62.02.78-.32.14-.3.28-.6.38-.91.09-.28.26-.37.54-.36.76.01,1.53-.02,2.29.02.18,0,.42.19.52.36.19.29.24.67.45.93.14.17.47.29.69.27.17-.02.32-.3.44-.42Z"/>
  </g>
  <g id="U">
    <path class="cls-2" d="M57.26,36.5c0,3.13.09,6.26-.02,9.39-.14,3.79-1.64,7.06-4.2,9.86-2.61,2.85-5.77,4.7-9.62,5.29-10.13,1.56-17.33-5.64-18.81-12.59-.24-1.11-.38-2.27-.39-3.41-.04-5.96-.02-11.93-.02-17.89,0-2.06,1.6-3.86,3.57-4.01,2.22-.17,4.09,1.26,4.41,3.39.06.37.03.76.03,1.15,0,5.63,0,11.27,0,16.9,0,4.08,2.66,7.49,6.54,8.43,5.18,1.25,10.37-2.6,10.47-7.92.11-6,.06-12,.06-17.99,0-2.15,1.69-3.9,3.88-3.97,2.13-.07,4.03,1.57,4.09,3.69.08,2.47.03,4.94.03,7.41,0,.77,0,1.53,0,2.3-.01,0-.03,0-.04,0Z"/>
  </g>
  <g id="C2">
    <path class="cls-2" d="M44.74,20.75c-.01,2.24-1.78,3.99-4.03,3.98-2.27,0-4-1.8-3.98-4.13.01-2.15,1.81-3.9,4-3.9,2.26,0,4.02,1.78,4,4.05Z"/>
  </g>
  <g id="C1">
    <path class="cls-2" d="M44.74,36.77c0,2.24-1.78,4-4.01,4-2.25,0-4.01-1.79-4-4.06.01-2.2,1.79-3.97,3.99-3.97,2.27,0,4.03,1.77,4.02,4.03Z"/>
    <text class="cls-1" transform="translate(102.73 69.38)"><tspan x="0" y="0">BRUMELAB ARCH</tspan></text>
    <path class="cls-2" d="M248.61,23.4c1.58,0,2.92.55,4.02,1.65s1.65,2.43,1.65,3.98-.55,2.88-1.65,3.98c-1.1,1.12-2.44,1.69-4.02,1.69s-2.88-.56-3.98-1.69c-1.1-1.1-1.65-2.43-1.65-3.98s.55-2.88,1.65-3.98c1.1-1.1,2.43-1.65,3.98-1.65"/>
    <path class="cls-2" d="M248.61.81c1.58,0,2.92.55,4.02,1.65s1.65,2.43,1.65,3.98-.55,2.89-1.65,4.02c-1.1,1.1-2.44,1.65-4.02,1.65s-2.88-.55-3.98-1.65c-1.1-1.12-1.65-2.46-1.65-4.02s.55-2.88,1.65-3.98c1.1-1.1,2.43-1.65,3.98-1.65"/>
  </g>
</svg>
